<svg width="16" height="16" viewBox="0 0 16 16" fill="none" xmlns="http://www.w3.org/2000/svg">
    <path fill-rule="evenodd" clip-rule="evenodd" d="M1.19626 0H14.8037C15.4644 0 16 0.535558 16 1.19626V14.8037C16 15.4644 15.4644 16 14.8037 16H1.19626C0.535631 16 0 15.4644 0 14.8037V1.19626C0 0.535558 0.535631 0 1.19626 0ZM9.1856 13.7682V11.9796C9.51008 12.2516 9.86259 12.4558 10.243 12.5917C10.6232 12.7277 11.0074 12.7958 11.3953 12.7958C11.6227 12.7958 11.8213 12.7751 11.9911 12.7342C12.1608 12.6932 12.3024 12.6364 12.4162 12.5637C12.5299 12.491 12.6148 12.4054 12.6707 12.3067C12.7266 12.2079 12.7545 12.1008 12.7545 11.9853C12.7545 11.9232 12.7475 11.8637 12.7335 11.8068C12.712 11.7205 12.6744 11.6403 12.6205 11.566C12.5308 11.4431 12.4087 11.3294 12.2539 11.2251C12.0992 11.1207 11.9154 11.0201 11.7028 10.9233C11.4904 10.8264 11.261 10.7276 11.0149 10.6271C10.3883 10.3662 9.92129 10.0477 9.61361 9.67129C9.30593 9.2949 9.15216 8.84032 9.15216 8.30739C9.15216 8.06754 9.17991 7.84711 9.23525 7.6461C9.27629 7.4973 9.33236 7.35908 9.40377 7.23153C9.57155 6.93159 9.80009 6.68465 10.0891 6.49087C10.3782 6.29709 10.7128 6.15457 11.0932 6.06338C11.2639 6.02242 11.4391 5.99065 11.6187 5.96802C11.8395 5.94027 12.067 5.9264 12.3014 5.9264C12.7192 5.9264 13.0894 5.95152 13.4119 6.00175C13.7344 6.05213 14.0318 6.12945 14.3042 6.23386V7.90501C14.1698 7.81184 14.0235 7.72992 13.8649 7.65902C13.7065 7.58827 13.5434 7.52957 13.3756 7.48306C13.2078 7.4364 13.0409 7.40201 12.8749 7.37953C12.7818 7.36704 12.6913 7.35806 12.6035 7.35251C12.5348 7.3482 12.4677 7.34609 12.4023 7.34609C12.1971 7.34609 12.0107 7.36565 11.8429 7.40486C11.6749 7.44385 11.5333 7.4989 11.4178 7.56965C11.302 7.64048 11.2126 7.72525 11.1491 7.82396C11.0857 7.92268 11.054 8.03359 11.054 8.15654C11.054 8.29067 11.0895 8.41092 11.1603 8.51709C11.2313 8.62325 11.3319 8.72386 11.4625 8.81878C11.593 8.91392 11.7515 9.00708 11.9379 9.09828C12.1244 9.18969 12.3351 9.28373 12.5701 9.38062C12.8908 9.51475 13.1787 9.65727 13.4343 9.80812C13.6897 9.95918 13.9087 10.1296 14.0916 10.3197C14.2742 10.5097 14.4143 10.7267 14.5111 10.9707C14.6081 11.215 14.6565 11.4991 14.6565 11.8232C14.6565 12.2703 14.5717 12.6458 14.4022 12.9493C14.2323 13.2531 14.002 13.4991 13.7112 13.6871C13.4203 13.8754 13.0819 14.0104 12.696 14.0924C12.3099 14.1745 11.9025 14.2155 11.4737 14.2155C11.0336 14.2155 10.6149 14.1782 10.2177 14.1036C9.9245 14.0486 9.66034 13.9733 9.42509 13.8777C9.34171 13.8438 9.26183 13.8072 9.1856 13.7682ZM8.50453 7.52862H6.20444V14.0859H4.3823V7.52862H2.09346V6.05593H8.50453V7.52862Z" fill="white"/>
</svg>
